<svg width="24" height="24" viewBox="0 0 24 24" fill="none" xmlns="http://www.w3.org/2000/svg">
<path fill-rule="evenodd" clip-rule="evenodd" d="M9.5 13.125H8.375V12H9.5V13.125V13.125ZM9.5 9.75H8.375V10.875H9.5V9.75V9.75ZM9.5 7.5H8.375V8.625H9.5V7.5V7.5ZM9.5 5.25H8.375V6.375H9.5V5.25V5.25ZM18.5 4.125V17.625C18.5 18.2438 17.9938 18.75 17.375 18.75H11.75V21L10.0625 19.3125L8.375 21V18.75H6.125C5.50625 18.75 5 18.2438 5 17.625V4.125C5 3.50625 5.50625 3 6.125 3H17.375C17.9938 3 18.5 3.50625 18.5 4.125V4.125ZM17.375 15.375H6.125V17.625H8.375V16.5H11.75V17.625H17.375V15.375V15.375ZM17.375 4.125H7.25V14.25H17.375V4.125V4.125Z" fill="#959da5"/>
</svg>
