<svg width="24" height="24" viewBox="0 0 24 24" fill="none" xmlns="http://www.w3.org/2000/svg">
<path fill-rule="evenodd" clip-rule="evenodd" d="M19 6C19 5.46957 18.7893 4.96086 18.4142 4.58579C18.0391 4.21071 17.5304 4 17 4H8C7.46957 4 6.96086 4.21071 6.58579 4.58579C6.21071 4.96086 6 5.46957 6 6V20.66H6.01C6.02 20.76 6.06 20.86 6.13 20.94C6.21948 21.0357 6.34295 21.0925 6.47387 21.0981C6.60478 21.1037 6.73266 21.0577 6.83 20.97L12.5 16.85L18.16 20.98C18.2084 21.025 18.2653 21.0599 18.3273 21.0827C18.3893 21.1056 18.4552 21.1159 18.5213 21.1131C18.5873 21.1103 18.6521 21.0944 18.712 21.0665C18.7718 21.0385 18.8255 20.9989 18.87 20.95C18.9401 20.8687 18.9822 20.767 18.99 20.66H19V6ZM12.16 15.97L7 19.64V6C7 5.73478 7.10536 5.48043 7.29289 5.29289C7.48043 5.10536 7.73478 5 8 5H17C17.2652 5 17.5196 5.10536 17.7071 5.29289C17.8946 5.48043 18 5.73478 18 6V19.64L12.84 15.97C12.7487 15.882 12.6268 15.8328 12.5 15.8328C12.3732 15.8328 12.2513 15.882 12.16 15.97V15.97Z" fill="black"/>
</svg>
