<svg width="25" height="25" viewBox="0 0 25 25" fill="none" xmlns="http://www.w3.org/2000/svg">
<path fill-rule="evenodd" clip-rule="evenodd" d="M11.74 0L12.5 2.97L13.26 0H11.74ZM14.81 3.78L16.65 1.22L15.23 0.75L14.81 3.78ZM8.37997 1.22L10.22 3.78L9.79997 0.75L8.37997 1.22ZM20.38 21.62C19.5526 22.5167 18.4317 23.0878 17.22 23.23L17.71 22.78C20.59 19.89 21.16 16.8 19.4 13.57L18.3 11.63L17.34 9.61C17.03 8.94 17.11 8.43 17.59 8.06C17.6828 7.98886 17.7894 7.93788 17.9031 7.91033C18.0167 7.88278 18.1349 7.87926 18.25 7.9C18.59 7.95 18.91 8.18 19.13 8.5L21.98 13.52C23.16 15.49 23.36 18.64 20.38 21.62V21.62ZM7.09997 21.1L2.07997 16.08C1.94293 15.9402 1.84992 15.7633 1.81248 15.5712C1.77504 15.379 1.79481 15.1802 1.86934 14.9992C1.94387 14.8181 2.06988 14.663 2.23175 14.5529C2.39363 14.4429 2.58424 14.3827 2.77997 14.38C2.91396 14.3792 3.04674 14.4054 3.17043 14.4569C3.29411 14.5084 3.40618 14.5843 3.49997 14.68L6.09997 17.28C6.18219 17.3635 6.29422 17.411 6.41143 17.4119C6.52864 17.4129 6.64143 17.3672 6.72497 17.285C6.80851 17.2028 6.85597 17.0907 6.85691 16.9735C6.85785 16.8563 6.81219 16.7435 6.72997 16.66L4.09997 14.04L2.34997 12.29C2.24529 12.2004 2.16027 12.09 2.10024 11.966C2.04022 11.8419 2.00649 11.7068 2.00117 11.5691C1.99585 11.4313 2.01906 11.294 2.06933 11.1657C2.11961 11.0374 2.19587 10.9208 2.29332 10.8233C2.39077 10.7259 2.50732 10.6496 2.63565 10.5994C2.76397 10.5491 2.9013 10.5259 3.03902 10.5312C3.17674 10.5365 3.31188 10.5703 3.43594 10.6303C3.56001 10.6903 3.67032 10.7753 3.75997 10.88L7.90997 15.03C7.95096 15.072 7.99995 15.1054 8.05405 15.1282C8.10814 15.151 8.16626 15.1628 8.22497 15.1628C8.28368 15.1628 8.3418 15.151 8.39589 15.1282C8.44999 15.1054 8.49898 15.072 8.53997 15.03C8.6218 14.9476 8.66772 14.8361 8.66772 14.72C8.66772 14.6039 8.6218 14.4924 8.53997 14.41L4.39997 10.26L3.21997 9.08C3.03674 8.89307 2.93411 8.64175 2.93411 8.38C2.93411 8.11825 3.03674 7.86693 3.21997 7.68C3.40979 7.49846 3.66232 7.39714 3.92497 7.39714C4.18762 7.39714 4.44015 7.49846 4.62997 7.68L5.80997 8.84L9.95997 13C10.0424 13.0818 10.1538 13.1278 10.27 13.1278C10.3861 13.1278 10.4975 13.0818 10.58 13C10.622 12.959 10.6554 12.91 10.6782 12.8559C10.701 12.8018 10.7128 12.7437 10.7128 12.685C10.7128 12.6263 10.701 12.5682 10.6782 12.5141C10.6554 12.46 10.622 12.411 10.58 12.37L6.42997 8.22C6.33623 8.1289 6.26146 8.02015 6.20997 7.9C6.15848 7.77986 6.13129 7.65071 6.12997 7.52C6.13129 7.38929 6.15848 7.26014 6.20997 7.14C6.26146 7.01985 6.33623 6.9111 6.42997 6.82C6.61733 6.63375 6.87078 6.52921 7.13497 6.52921C7.39916 6.52921 7.65261 6.63375 7.83997 6.82L14.84 13.8C14.9144 13.8677 15.0097 13.9078 15.1101 13.9138C15.2105 13.9197 15.31 13.891 15.3918 13.8326C15.4737 13.7741 15.533 13.6894 15.56 13.5925C15.5869 13.4956 15.5799 13.3923 15.54 13.3L14.19 10.45C13.88 9.77 13.96 9.26 14.44 8.89C14.5331 8.8194 14.6397 8.76875 14.7533 8.74122C14.8669 8.71369 14.9849 8.70987 15.1 8.73C15.44 8.79 15.76 9.01 15.98 9.33L18.63 14C20.2 16.88 19.7 19.54 17.08 22.16C16.4386 22.8317 15.6407 23.334 14.7577 23.622C13.8747 23.9099 12.9341 23.9745 12.02 23.81C10.1362 23.4314 8.41478 22.4817 7.08997 21.09L7.09997 21.1ZM11 5.98L13.56 8.54C13.06 9.14 13 9.95 13.41 10.82L13.67 11.38L9.41997 7.13C9.34439 6.99182 9.30323 6.83746 9.29997 6.68C9.30108 6.41766 9.40523 6.16626 9.58997 5.98C9.77979 5.79846 10.0323 5.69714 10.295 5.69714C10.5576 5.69714 10.8102 5.79846 11 5.98V5.98ZM19.89 8.04C19.51 7.48 18.99 7.12 18.4 7.03C18.1659 6.99071 17.9263 6.99972 17.6959 7.05647C17.4654 7.11322 17.249 7.21652 17.06 7.36C16.68 7.65 16.45 8.01 16.35 8.42C16.0477 8.12736 15.6645 7.93226 15.25 7.86C14.9143 7.80799 14.5708 7.8531 14.26 7.99L11.62 5.35C11.2678 5.00009 10.7914 4.80371 10.295 4.80371C9.7985 4.80371 9.32218 5.00009 8.96997 5.35C8.73715 5.58555 8.57144 5.87899 8.48997 6.2C8.13697 5.8451 7.6576 5.64473 7.15704 5.64286C6.65648 5.64098 6.17562 5.83776 5.81997 6.19C5.57237 6.43731 5.39914 6.74913 5.31997 7.09C4.55997 6.34 3.31997 6.34 2.61997 7.05C2.4452 7.2246 2.30656 7.43193 2.21197 7.66014C2.11738 7.88835 2.06869 8.13296 2.06869 8.38C2.06869 8.62704 2.11738 8.87165 2.21197 9.09986C2.30656 9.32807 2.4452 9.5354 2.61997 9.71C2.31997 9.83 2.00997 10 1.74997 10.26C1.5752 10.4346 1.43656 10.6419 1.34197 10.8701C1.24738 11.0983 1.19869 11.343 1.19869 11.59C1.19869 11.837 1.24738 12.0817 1.34197 12.3099C1.43656 12.5381 1.5752 12.7454 1.74997 12.92L2.36997 13.54C2.04375 13.6165 1.74389 13.7787 1.50144 14.01C1.25899 14.2413 1.08275 14.5332 0.990971 14.8554C0.899191 15.1777 0.895202 15.5186 0.979418 15.8429C1.06363 16.1672 1.233 16.4631 1.46997 16.7L6.47997 21.72C8.07997 23.32 9.99997 24.36 11.88 24.68C12.2699 24.7459 12.6646 24.7793 13.06 24.78C14.09 24.78 15.06 24.53 15.96 24.08C16.8857 24.1935 17.8251 24.0859 18.7012 23.766C19.5773 23.4462 20.3651 22.9232 21 22.24C24.34 18.9 24.08 15.31 22.74 13.07L19.87 8.03L19.89 8.04Z" fill="black"/>
</svg>
