<svg width="16" height="16" viewBox="0 0 16 16" fill="none" xmlns="http://www.w3.org/2000/svg">
<path fill-rule="evenodd" clip-rule="evenodd" d="M12.6667 2.00001H9.88C9.6 1.22667 8.86667 0.666672 8 0.666672C7.13333 0.666672 6.4 1.22667 6.12 2.00001H3.33333C2.6 2.00001 2 2.6 2 3.33334V12.6667C2 13.4 2.6 14 3.33333 14H12.6667C13.4 14 14 13.4 14 12.6667V3.33334C14 2.6 13.4 2.00001 12.6667 2.00001ZM8 2.00001C8.36667 2.00001 8.66667 2.30001 8.66667 2.66667C8.66667 3.03334 8.36667 3.33334 8 3.33334C7.63334 3.33334 7.33334 3.03334 7.33334 2.66667C7.33334 2.30001 7.63334 2.00001 8 2.00001ZM6.66667 11.3333L4 8.66665L4.94 7.72665L6.66667 9.44665L11.06 5.05332L12 5.99999L6.66667 11.3333Z" fill="#00B517"/>
</svg>
