<svg class="svgIcon" height="16px" width="16px" version="1.1" viewBox="0 0 16 16" x="0px" xmlns="http://www.w3.org/2000/svg" xmlns:xlink="http://www.w3.org/1999/xlink" xml:space="preserve" y="0px"><path d="M8.8,11.6c0.1,0,0.1,0.1,0.2,0.1c0.4,0.2,0.8,0.1,1-0.3c0.1-0.2,0.2-0.4,0.3-0.6c0.2-0.2,0.5-0.6,0.8-0.7 C11.5,10,11.8,10,12,10c0.4,0,0.9,0.4,1.6,0.8c0.7,0.4,1.2,0.8,1.5,1c0.2,0.2,0.3,0.4,0.3,0.6c0,0.4,0,1.2-0.7,1.9 c-1,1.1-2.5,1.6-4.3,1c-1.8-0.6-4.1-1.7-6-3.7s-3.1-4.2-3.7-6s-0.2-3.3,1-4.3c0.7-0.6,1.4-0.7,1.9-0.7c0.2,0,0.5,0.1,0.6,0.3 c0.2,0.3,0.6,0.8,1,1.5C5.7,3.1,6,3.6,6,4c0,0.3,0,0.6-0.1,0.8C5.8,5.1,5.5,5.4,5.2,5.6C5,5.8,4.8,5.9,4.7,6C4.3,6.1,4.1,6.6,4.3,7 c0,0.1,0.1,0.1,0.1,0.2C5.5,9,7,10.5,8.8,11.6z" style="fill: #0081ff; stroke: #0081ff;"></path></svg>