<svg class="svgIcon" height="16px" width="16px" version="1.1" viewBox="0 0 16 16" x="0px" xmlns="http://www.w3.org/2000/svg" xmlns:xlink="http://www.w3.org/1999/xlink" xml:space="preserve" y="0px"><path d="M9.5,13.5h-7c-1.1,0-2-0.9-2-2v-7c0-1.1,0.9-2,2-2h7c1.1,0,2,0.9,2,2v7C11.5,12.6,10.6,13.5,9.5,13.5z" style="fill: #0081ff; stroke: #0081ff;"></path><line stroke="none" x1="13.5" x2="13.5" y1="5" y2="11"></line><path d="M15,3.6l-3.5,3V8v1.4l3.5,3c0.2,0.2,0.5,0,0.5-0.3V8V3.9C15.5,3.6,15.2,3.4,15,3.6z" style="fill: #0081ff; stroke: #0081ff;"></path></svg>