<svg width="24" height="24" viewBox="0 0 24 24" fill="none" xmlns="http://www.w3.org/2000/svg">
<path fill-rule="evenodd" clip-rule="evenodd" d="M2.5 8.9C2.5 6.09614 4.69614 3.9 7.5 3.9C9.08861 3.9 10.6211 4.64197 11.6193 5.81417L12 6.2612L12.3807 5.81417C13.3789 4.64197 14.9114 3.9 16.5 3.9C19.3039 3.9 21.5 6.09614 21.5 8.9C21.5 10.6243 20.7296 12.2281 19.2728 14.0103C17.8102 15.7995 15.7082 17.7073 13.1268 20.0481L13.1134 20.0603L11.9987 21.075L10.8863 20.07L10.8852 20.069L10.8468 20.0341C8.27286 17.6951 6.17754 15.7893 4.71973 14.0024C3.26768 12.2226 2.5 10.6214 2.5 8.9ZM5.78512 13.7176C7.18867 15.3576 9.18799 17.1689 11.5552 19.3123L12 19.7571L12.4448 19.3123C14.812 17.1689 16.8113 15.3576 18.2149 13.7176C19.6154 12.0811 20.5 10.5296 20.5 8.9C20.5 6.62386 18.7761 4.9 16.5 4.9C14.8887 4.9 13.3081 5.85568 12.6133 7.26H11.3948C10.6926 5.85702 9.11294 4.9 7.5 4.9C5.22386 4.9 3.5 6.62386 3.5 8.9C3.5 10.5296 4.38462 12.0811 5.78512 13.7176Z" fill="#3C4858"/>
</svg>
