<?xml version="1.0" standalone="no"?>
<!DOCTYPE svg PUBLIC "-//W3C//DTD SVG 20010904//EN"
 "http://www.w3.org/TR/2001/REC-SVG-20010904/DTD/svg10.dtd">
<svg version="1.0" xmlns="http://www.w3.org/2000/svg"
 width="1280.000000pt" height="704.000000pt" viewBox="0 0 1280.000000 704.000000"
 preserveAspectRatio="xMidYMid meet">
<metadata>
Created by potrace 1.15, written by Peter Selinger 2001-2017
</metadata>
<g transform="translate(0.000000,704.000000) scale(0.100000,-0.100000)"
fill="#000000" stroke="none">
<path d="M700 4010 l0 -2950 70 0 70 0 0 2950 0 2950 -70 0 -70 0 0 -2950z"/>
<path d="M940 4010 l0 -2950 30 0 30 0 0 2950 0 2950 -30 0 -30 0 0 -2950z"/>
<path d="M1170 4010 l0 -2950 30 0 30 0 0 2950 0 2950 -30 0 -30 0 0 -2950z"/>
<path d="M1570 4010 l0 -2950 145 0 145 0 0 2950 0 2950 -145 0 -145 0 0
-2950z"/>
<path d="M1960 4010 l0 -2950 30 0 30 0 0 2950 0 2950 -30 0 -30 0 0 -2950z"/>
<path d="M2120 4010 l0 -2950 110 0 110 0 0 2950 0 2950 -110 0 -110 0 0
-2950z"/>
<path d="M2440 4010 l0 -2950 105 0 105 0 0 2950 0 2950 -105 0 -105 0 0
-2950z"/>
<path d="M2750 4010 l0 -2950 30 0 30 0 0 2950 0 2950 -30 0 -30 0 0 -2950z"/>
<path d="M3060 4010 l0 -2950 70 0 70 0 0 2950 0 2950 -70 0 -70 0 0 -2950z"/>
<path d="M3300 4010 l0 -2950 30 0 30 0 0 2950 0 2950 -30 0 -30 0 0 -2950z"/>
<path d="M3690 4010 l0 -2950 70 0 70 0 0 2950 0 2950 -70 0 -70 0 0 -2950z"/>
<path d="M3930 4010 l0 -2950 30 0 30 0 0 2950 0 2950 -30 0 -30 0 0 -2950z"/>
<path d="M4170 4010 l0 -2950 65 0 65 0 0 2950 0 2950 -65 0 -65 0 0 -2950z"/>
<path d="M4640 4010 l0 -2950 30 0 30 0 0 2950 0 2950 -30 0 -30 0 0 -2950z"/>
<path d="M4880 4010 l0 -2950 30 0 30 0 0 2950 0 2950 -30 0 -30 0 0 -2950z"/>
<path d="M5040 4010 l0 -2950 25 0 25 0 0 2950 0 2950 -25 0 -25 0 0 -2950z"/>
<path d="M5430 4010 l0 -2950 70 0 70 0 0 2950 0 2950 -70 0 -70 0 0 -2950z"/>
<path d="M5660 4010 l0 -2950 30 0 30 0 0 2950 0 2950 -30 0 -30 0 0 -2950z"/>
<path d="M5900 4010 l0 -2950 30 0 30 0 0 2950 0 2950 -30 0 -30 0 0 -2950z"/>
<path d="M6060 4010 l0 -2950 30 0 30 0 0 2950 0 2950 -30 0 -30 0 0 -2950z"/>
<path d="M6290 4010 l0 -2950 150 0 150 0 0 2950 0 2950 -150 0 -150 0 0
-2950z"/>
<path d="M6770 4010 l0 -2950 30 0 30 0 0 2950 0 2950 -30 0 -30 0 0 -2950z"/>
<path d="M6930 4010 l0 -2950 65 0 65 0 0 2950 0 2950 -65 0 -65 0 0 -2950z"/>
<path d="M7240 4010 l0 -2950 30 0 30 0 0 2950 0 2950 -30 0 -30 0 0 -2950z"/>
<path d="M7630 4010 l0 -2950 30 0 30 0 0 2950 0 2950 -30 0 -30 0 0 -2950z"/>
<path d="M8020 4010 l0 -2950 30 0 30 0 0 2950 0 2950 -30 0 -30 0 0 -2950z"/>
<path d="M8260 4010 l0 -2950 70 0 70 0 0 2950 0 2950 -70 0 -70 0 0 -2950z"/>
<path d="M8500 4010 l0 -2950 30 0 30 0 0 2950 0 2950 -30 0 -30 0 0 -2950z"/>
<path d="M8890 4010 l0 -2950 70 0 70 0 0 2950 0 2950 -70 0 -70 0 0 -2950z"/>
<path d="M9130 4010 l0 -2950 30 0 30 0 0 2950 0 2950 -30 0 -30 0 0 -2950z"/>
<path d="M9365 4010 l0 -2950 28 0 27 0 0 2950 0 2950 -27 0 -28 0 0 -2950z"/>
<path d="M9600 4010 l0 -2950 30 0 30 0 0 2950 0 2950 -30 0 -30 0 0 -2950z"/>
<path d="M9760 4010 l0 -2950 70 0 70 0 0 2950 0 2950 -70 0 -70 0 0 -2950z"/>
<path d="M10230 4010 l0 -2950 30 0 30 0 0 2950 0 2950 -30 0 -30 0 0 -2950z"/>
<path d="M10390 4010 l0 -2950 145 0 145 0 0 2950 0 2950 -145 0 -145 0 0
-2950z"/>
<path d="M10780 4010 l0 -2950 110 0 110 0 0 2950 0 2950 -110 0 -110 0 0
-2950z"/>
<path d="M11100 4010 l0 -2950 70 0 70 0 0 2950 0 2950 -70 0 -70 0 0 -2950z"/>
<path d="M11490 4010 l0 -2950 110 0 110 0 0 2950 0 2950 -110 0 -110 0 0
-2950z"/>
<path d="M11800 4010 l0 -2950 30 0 30 0 0 2950 0 2950 -30 0 -30 0 0 -2950z"/>
<path d="M11960 4010 l0 -2950 70 0 70 0 0 2950 0 2950 -70 0 -70 0 0 -2950z"/>
</g>
</svg>
